<?xml version="1.0"?>
<svg xmlns="http://www.w3.org/2000/svg" xmlns:xlink="http://www.w3.org/1999/xlink" xmlns:svgjs="http://svgjs.com/svgjs" version="1.1" width="512" height="512" x="0" y="0" viewBox="0 0 512 512" style="enable-background:new 0 0 512 512" xml:space="preserve" class=""><g><path xmlns="http://www.w3.org/2000/svg" d="m504.371094 62.777344c-4.214844 0-7.632813 3.417968-7.632813 7.628906v289.902344c0 1.679687-1.375 3.050781-3.050781 3.050781h-119.417969v-126.285156c0-7.863281-6.402343-14.261719-14.277343-14.261719h-33.757813v-37.421875c0-4.214844-3.417969-7.632813-7.628906-7.632813-4.222657 0-7.632813 3.417969-7.632813 7.632813v37.421875c-7.160156 0-173.765625 0-179.601562 0h-.648438c-7.125 0-12.921875 5.796875-12.921875 12.921875v.648437 156.972657c-10.960937 1.683593-23.363281 1.578125-37.199219 1.453125v-15.128906c0-8.992188-7.324218-16.320313-16.328124-16.320313h-47.945313c-9.003906 0-16.328125 7.328125-16.328125 16.320313v105.296874c0 8.996094 7.324219 16.320313 16.328125 16.320313h47.945313c9.003906 0 16.328124-7.324219 16.328124-16.320313v-13.988281c67.078126-.3125 55.25-2.367187 97.429688 16.816407 3.835938 1.75 8.363281.0625 10.105469-3.773438 1.75-3.835938.0625-8.363281-3.773438-10.113281-44.804687-20.421875-35.058593-18.507813-103.761719-18.183594v-45.664063c26.210938.234376 54.789063.882813 72.902344-16.226562 7.984375-7.535156 19.941406-12.113281 32.34375-10.621094l54.859375 9.695313c-2.632812 5.167969-8.140625 8.566406-14.355469 8.566406h-7.761718c-23.144532 0-35.09375 28.027344-18.304688 44.179687 4.84375 4.671876 11.402344 7.410157 18.761719 7.179688 28.457031-1.039062 58.308594-3.53125 107.1875-19.574219 30.519531-10.03125 32.402344-12.351562 35.589844-12.351562 7.261719 0 9.410156 9.609375 3.285156 12.921875-49.785156 25.144531-108.105469 54.085937-153.804687 48.105468-4.191407-.539062-8.007813 2.410157-8.546876 6.59375-.539062 4.179688 2.410157 8.007813 6.59375 8.546876 38.800782 5.054687 82.488282-11.71875 118.429688-28.125 12.1875-5.558594 42.941406-20.453126 46.488281-22.851563 13.011719-8.820313 12.808594-28.019531 0-36.65625v-30.832031h119.417969c10.101562 0 18.3125-8.21875 18.3125-18.3125v-289.902344c0-4.210938-3.417969-7.628906-7.628906-7.628906zm-439.03125 422.199218c0 .578126-.476563 1.058594-1.066406 1.058594h-47.945313c-.589844 0-1.066406-.480468-1.066406-1.058594v-105.296874c0-.578126.476562-1.058594 1.066406-1.058594h47.945313c.589843 0 1.066406.480468 1.066406 1.058594zm134.425781-246.902343h44.503906v44.378906l-16.105469-12.59375c-3.625-2.847656-8.71875-2.824219-12.292968 0l-16.105469 12.59375zm111.207031 184.015625c-40.992187 12.492187-67.375 14.589844-92.476562 15.503906-2.878906.101562-5.542969-.90625-7.621094-2.917969-6.976562-6.710937-1.660156-17.929687 7.714844-17.929687h7.761718c14.355469 0 26.820313-9.511719 30.332032-23.238282.742187-3.078124.953125-3.6875.953125-5.066406 0-4.648437-3.324219-8.617187-7.914063-9.433594-.621094-.109374-61.195312-10.820312-61.820312-10.914062-17.648438-2.121094-34.144532 4.464844-44.878906 14.671875-2.859376 2.695313-6.226563 4.789063-9.960938 6.417969 0-16.210938 0-147.984375 0-151.109375h51.441406v55.226562c0 8.355469 9.671875 12.941407 16.117188 7.855469l21.394531-16.738281 21.386719 16.738281c6.492187 5.09375 16.128906.476562 16.128906-7.855469v-55.226562h51.441406zm48.035156-16.25c-5.421874.683594-6.679687 2.53125-32.773437 11.335937v-179.101562h32.773437zm0 0" fill="#fc3d6a" data-original="#000000" style=""/><path xmlns="http://www.w3.org/2000/svg" d="m493.6875 0h-164.402344c-10.101562 0-18.3125 8.222656-18.3125 18.3125v136.554688c0 4.222656 3.410156 7.628906 7.632813 7.628906 4.210937 0 7.628906-3.40625 7.628906-7.628906v-136.554688c0-1.675781 1.363281-3.050781 3.050781-3.050781h164.402344c1.675781 0 3.050781 1.375 3.050781 3.050781v21.570312c0 4.214844 3.417969 7.632813 7.632813 7.632813 4.210937 0 7.628906-3.417969 7.628906-7.632813v-21.570312c0-10.089844-8.210938-18.3125-18.3125-18.3125zm0 0" fill="#fc3d6a" data-original="#000000" style=""/><path xmlns="http://www.w3.org/2000/svg" d="m361.585938 203.152344c4.214843 0 7.632812-3.417969 7.632812-7.632813v-44.429687c0-8.132813-6.621094-14.75-14.753906-14.75h-7.800782c-4.214843 0-7.632812 3.414062-7.632812 7.628906s3.417969 7.632812 7.632812 7.632812h7.292969v43.917969c0 4.214844 3.414063 7.632813 7.628907 7.632813zm0 0" fill="#fc3d6a" data-original="#000000" style=""/></g></svg>
