<?xml version="1.0"?>
<svg xmlns="http://www.w3.org/2000/svg" xmlns:xlink="http://www.w3.org/1999/xlink" xmlns:svgjs="http://svgjs.com/svgjs" version="1.1" width="512" height="512" x="0" y="0" viewBox="0 0 24 24" style="enable-background:new 0 0 512 512" xml:space="preserve"><g><g xmlns="http://www.w3.org/2000/svg"><path d="m21.208 24c-.098 0-.196-.029-.281-.086l-3.427-2.332-3.427 2.332c-.171.117-.397.115-.568-.004s-.249-.331-.198-.532l1.061-4.188-3.192-2.726c-.155-.133-.214-.347-.149-.54s.241-.328.445-.339l4.083-.231 1.477-4.025c.145-.394.794-.394.938 0l1.477 4.025 4.083.231c.204.011.38.146.445.339s.006.407-.149.54l-3.192 2.726 1.061 4.188c.051.201-.028.413-.198.532-.088.06-.188.09-.289.09zm-3.708-3.523c.098 0 .196.029.281.086l2.619 1.782-.813-3.211c-.046-.184.016-.379.16-.503l2.481-2.119-3.167-.18c-.199-.011-.373-.14-.441-.327l-1.12-3.054-1.12 3.054c-.068.187-.242.315-.441.327l-3.167.18 2.481 2.119c.145.124.207.319.16.503l-.813 3.211 2.619-1.782c.085-.058.183-.086.281-.086z" fill="#ffffff" data-original="#000000" style=""/></g><g xmlns="http://www.w3.org/2000/svg"><path d="m10.5 20h-10c-.276 0-.5-.224-.5-.5v-4c0-1.93 1.57-3.5 3.5-3.5h10c.276 0 .5.224.5.5s-.224.5-.5.5h-10c-1.378 0-2.5 1.122-2.5 2.5v3.5h9.5c.276 0 .5.224.5.5s-.224.5-.5.5z" fill="#ffffff" data-original="#000000" style=""/></g><g xmlns="http://www.w3.org/2000/svg"><path d="m8 10c-1.93 0-3.5-1.57-3.5-3.5 0-.276.224-.5.5-.5 1.718 0 2.5-1.296 2.5-2.5 0-.276.224-.5.5-.5s.5.224.5.5c0 1.204.782 2.5 2.5 2.5.276 0 .5.224.5.5 0 1.93-1.57 3.5-3.5 3.5zm-2.457-3.035c.219 1.157 1.238 2.035 2.457 2.035s2.238-.878 2.457-2.035c-1.151-.15-1.976-.777-2.457-1.596-.481.819-1.306 1.446-2.457 1.596z" fill="#ffffff" data-original="#000000" style=""/></g><g xmlns="http://www.w3.org/2000/svg"><path d="m12 10h-8c-.827 0-1.5-.673-1.5-1.5v-3c0-3.033 2.467-5.5 5.5-5.5s5.5 2.467 5.5 5.5v3c0 .827-.673 1.5-1.5 1.5zm-4-9c-2.481 0-4.5 2.019-4.5 4.5v3c0 .276.224.5.5.5h8c.276 0 .5-.224.5-.5v-3c0-2.481-2.019-4.5-4.5-4.5z" fill="#ffffff" data-original="#000000" style=""/></g></g></svg>
